<svg xmlns="http://www.w3.org/2000/svg" viewBox="0 0 1025 120"><path d="M620.5 67c-8.9-12.5-25-14.8-39-17.9-1.6-.4-3.2-.7-4.8-1.1-6.5-1.4-13.3-2.8-19-5.9-3-1.6-4.7-4.6-4.7-8.3 0-2.6.8-5 2.4-7.2 1.6-2.2 4.2-4 7.7-5.4 3.7-1.4 8.1-2.2 13-2.2 5.6 0 10.6 1 15 2.9 4.2 1.8 7.4 4.2 9.3 7 .9 1.4 1.8 3.6 2.4 5.7.2.6.7 1.4 1.4 1.4h18.1c.8 0 1.4-1.1 1.4-1.8 0-.2 0-.6-.1-.7-.9-5.5-2.8-10.6-5.8-15.1-4.1-6.1-9.7-10.8-16.8-13.8-6.9-3-15.5-4.5-25.6-4.5-8.1 0-15.4 1.5-21.9 4.4-6.6 3-11.8 7.3-15.4 12.8-3.6 5.5-5.4 11.4-5.4 17.6 0 15.1 11.6 25.4 26.1 29.4 5.1 1.4 10.2 2.6 15.4 3.7 10.1 2.3 16.6 4 19.4 5 4.1 1.5 6.9 3.2 8.6 5.2 1.6 1.9 2.3 4.1 2.3 6.7 0 2.6-.8 4.9-2.5 7.2-1.7 2.2-4.4 4-8.1 5.4-3.9 1.4-8.5 2.2-13.7 2.2-5.8 0-11.1-1-15.8-2.9-4.4-1.8-7.7-4.2-9.8-7.1-1-1.4-1.8-2.9-2.5-5-.2-.6-.7-.7-1.4-.7h-18.9c-.4 0-.8 0-1.1.3-.3.3-.4.6-.3 1 .9 5.6 3 10.7 6.1 15.3 4.2 6.1 10.1 10.7 17.6 13.7 7.2 2.9 16.2 4.4 26.7 4.4 8.4 0 16.1-1.5 22.9-4.4 6.9-3 12.3-7.3 16.1-12.8 3.7-5.5 5.6-11.4 5.6-17.6.3-6.4-1.4-12.1-4.9-16.9zM86.2 97H22V68h57.6c.8 0 .4-.9.4-1.6V49.9c0-.8.4.1-.4.1H22V22h61.7c.8 0 1.3-1.2 1.3-1.9V3.5c0-.8-.6-1.5-1.3-1.5H1.9C1.1 2 0 2.7 0 3.5v111.6c0 .8 1.1.9 1.9.9h84.3c.8 0 .8-.1.8-.9V98.6c0-.8-.1-1.6-.8-1.6zM213.5 97H157V3.5c0-.8-1-1.5-1.8-1.5h-18.1c-.8 0-2.1.7-2.1 1.5v111.6c0 .8 1.4.9 2.1.9h76.4c.8 0 1.5-.1 1.5-.9V98.6c0-.8-.8-1.6-1.5-1.6zM281 3.4c0-.8-.6-1.4-1.4-1.4h-18.2c-.8 0-1.4.6-1.4 1.4v112.2c0 .8.6 1.4 1.4 1.4h18.2c.8 0 1.4-.6 1.4-1.4V3.4zM418.7 97H354V68h58.2c.8 0 1.8-.9 1.8-1.6V49.9c0-.8-1.1.1-1.8.1H354V22h62.2c.8 0 .8-1.2.8-1.9V3.5c0-.8 0-1.5-.8-1.5h-81.8c-.8 0-1.5.7-1.5 1.5v111.6c0 .8.7.9 1.5.9h84.3c.8 0 1.3-.1 1.3-.9V98.6c0-.8-.5-1.6-1.3-1.6zM854.7 2.9c-.2-.5-.7-.9-1.2-.9h-17c-.5 0-1 .4-1.2 1l-40.5 111.6c-.2.4-.1.7.1 1 .2.4.6.4 1.1.4h18.2c.5 0 1 .1 1.2-.4l8.4-24.6h42.9l9.3 24.6c.2.5.7.4 1.2.4h19.3c.4 0 .8 0 1.1-.4.2-.4.3-.8.1-1.2l-43-111.5zm-9.6 23.2L860 72h-29.6l14.7-45.9zM718.6 2.9c-.2-.5-.7-.9-1.2-.9h-17c-.5 0-1 .4-1.2 1l-40.5 111.6c-.2.4-.1.7.1 1 .2.4.6.4 1.1.4h18.2c.5 0 1 .1 1.2-.4l8.4-24.6h42.9l9.3 24.6c.2.5.7.4 1.2.4h19.3c.4 0 .8 0 1.1-.4.2-.4.3-.8.1-1.2l-43-111.5zM709 26.1L723.9 72h-29.6L709 26.1zM1018.1 63.6c-2.7-3.5-6.1-6.3-10.3-8.4 2.8-2.1 5.1-4.6 6.8-7.5 2.8-4.6 4.2-9.5 4.2-14.7 0-5.5-1.6-10.9-4.7-16-3.2-5.1-7.6-9-13.2-11.4-5.3-2.3-12.4-3.6-21.1-3.6H934c-.8 0-1 .7-1 1.5v111.6c0 .8.3.9 1 .9h46.5c7.1 0 13.2-.4 18.2-1.7 5.1-1.3 9.5-3.2 13-5.8 3.5-2.7 6.5-6.4 8.9-11.2 2.3-4.8 3.5-10 3.5-15.5 0-6.9-2-13-6-18.2zM980.5 97H954V67h24.6c6.5 0 11.4.4 14.7 1.5 3 1 5.2 2.5 6.9 4.9 1.7 2.4 2.5 5.2 2.5 8.6 0 2.9-.6 5.4-1.7 7.5-1.1 2.1-2.6 3.7-4.3 4.8-1.8 1.1-4.2 1.9-7.1 2.4-1.7.2-4.7.3-9.1.3zm15.6-54.9c-1.4 1.9-3.6 3.6-6.5 4.5-2.4.7-6.7 1.4-12.6 1.4h-23V22h21.2c7.4 0 12.6.2 15.4 1.1 2.4.8 4.3 2 5.6 4.1 1.4 2.2 2.1 4.7 2.1 7.6-.1 3-.8 5.4-2.2 7.3z"/></svg>