<svg version="1" xmlns="http://www.w3.org/2000/svg" width="1398.667" height="1398.667" viewBox="0 0 1049.000000 1049.000000"><path d="M496.8.5c-.1.1-5.4.6-11.7 1-6.3.4-12.1.8-13 1-.9.1-4.5.6-8.1 1-7.1.8-30 4.1-34 5-1.4.3-4.1.8-6 1.1-5.3.8-28.4 6.3-38.5 9.1-102.6 28.4-193.9 87.2-263.4 169.7-16 19-34.7 45.3-47.9 67.4-3.4 5.6-6.2 10.5-6.2 10.8 0 .2-1.1 2.2-2.5 4.4-4.6 7.4-18.4 35.8-24.8 51.2-13.3 32-23 63.2-30.3 97.3-1.4 6.6-6.4 39.1-7 45-.3 3.8-.8 7.8-1 8.8-1.9 10-2.6 71-1.1 89.7.5 5.2 1 11.7 1.3 14.5.7 8.8 4.4 33.7 6.5 44.4 1.2 5.7 2.3 11.4 2.5 12.5 4.2 22.3 13.7 53.5 25.1 82.6 25.5 65.2 65.9 126.7 116.3 177 21.4 21.5 44.7 41.8 60 52.3 2.5 1.7 4.7 3.3 5 3.7 1 1.1 24.6 16.8 33.8 22.4 20.4 12.3 40.9 23.1 60.7 31.8 5 2.2 10.4 4.6 12 5.3 11.4 5.1 39.8 14.8 59.5 20.3 13.6 3.8 28.6 7.5 36 8.8 1.4.2 3.6.7 5 .9 1.4.3 3.6.7 5 1 12.2 2 15 2.5 18.5 3 2.2.3 5.1.7 6.5 1 1.4.2 5.2.6 8.5 1 3.3.3 7.4.8 9 1 9.6 1.3 24.3 1.9 50.5 1.9 35.9.1 48.5-.7 78-5 11-1.6 35.2-6 38.2-7 1-.3 2.8-.7 4-.9 1.3-.3 7.5-1.8 13.8-3.5 6.3-1.7 12.2-3.2 13-3.5 3.4-.8 26.2-8.2 29.5-9.5 1.1-.4 7.6-2.9 14.5-5.5 52.1-20 103.4-50.5 149-88.6 21.2-17.7 53.3-50.7 70.5-72.4 2.2-2.8 4.2-5.2 4.5-5.5 2.2-2.2 16.6-22.4 25.2-35.5 27.2-41.3 47.8-85.1 62.7-133 4.2-13.6 12.5-46.8 13.6-54.5.4-2.4.8-4.7 1-5 .4-.7 5.2-33.9 5.9-41.5 2.8-27.1 2.8-85.7.1-106-.2-1.7-.9-7.1-1.5-12-1.1-9.2-1.7-13.1-2.5-17.5-.3-1.4-.7-3.9-.9-5.5-5.7-35.7-17.4-76.3-32.8-113.3-8.3-19.8-23.4-49.8-32.9-65.5-1.6-2.6-2.9-5-2.9-5.3 0-.2-.4-1-1-1.7-.5-.7-4.7-6.8-9.1-13.7-22.9-35.1-50.9-68.2-81.8-96.8-10.6-9.7-16.4-14.8-32.6-28.1-4.9-4-24.9-18.4-34.5-24.8-45.8-30.5-99.4-54.9-150.7-68.7-11.5-3.1-36.1-8.7-43.8-10.1-16.3-2.8-33.3-5.1-45-6-4.4-.4-9.1-.9-10.5-1.2-2.7-.5-66.6-1.3-67.2-.8zM563 36.4c1.9.2 7.1.8 11.5 1.1 4.4.4 8.7.8 9.5 1 .8.1 4 .6 7 1s6.2.9 7 1c.8.1 4 .6 7 1.1 3 .4 5.7.8 6 .9 3.8.9 7 1.6 9.5 2 1.7.3 4.1.7 5.5 1 1.4.3 3.6.8 5 1.1 4.9 1 18.7 4.6 28.9 7.5 28.8 8.4 52 17.4 78.6 30.5 25.5 12.6 31.3 15.8 52 29.2 93 60.3 164 152 198.5 256.2 3.7 11.4 11.5 38.6 12.4 43.5.2 1.1 1.3 6.5 2.5 12 1.1 5.5 2.3 11.6 2.6 13.5.3 1.9.8 4.6 1 6 .5 2.4.8 4.4 1.9 12.5.3 2.2.8 5.6 1.1 7.5 2.1 14.4 3 31.4 3 58.5 0 24.1-.7 43.3-1.9 50.5-.3 1.4-.7 5-1 8-.4 4.9-3 23.2-4 28.5-1.7 9.1-5.1 24.4-6.8 31-1.1 4.4-2.1 8.7-2.3 9.5-2.2 9.7-10.7 35.2-18.2 54.5-5.1 12.9-21.4 47.3-28.1 59-28.5 49.8-63 91.8-107.7 131-45.7 40.1-105.3 73.8-166.5 94.2-12.6 4.2-47.2 13.4-55 14.7-1.9.3-7.1 1.2-11.5 2-8.6 1.6-10.6 1.9-23 3.5-23.4 3-33.5 3.6-63 3.6-23.2 0-42.3-.7-49.5-1.9-1.4-.2-5.2-.7-8.5-1.1-11.4-1.3-14.1-1.7-28-4.1-27.7-4.9-68.3-16-87-23.9-1.6-.7-8.8-3.6-16-6.5-25-10.2-59.2-28.7-84-45.3-4.9-3.4-9.4-6.5-10-6.9-.5-.4-6-4.6-12.2-9.2-6.2-4.6-11.8-8.9-12.5-9.5-.7-.6-2.2-1.9-3.4-2.9-30.8-25.3-61.9-58.6-86.1-92.1-3.5-4.7-6.7-9.3-7.2-10.1-.6-.8-3-4.4-5.4-8-13-19.4-31.8-54.8-41.8-78.5-13.1-31.4-24.1-68.4-30.4-102.5-1-5.9-1.5-9.1-2-13-.3-2.5-.7-5.6-1-7-.2-1.4-.7-5.2-1.1-8.5-.3-3.3-.8-6.7-.9-7.5-2.6-13.9-2.6-86.5 0-101 .1-.8.6-4.2.9-7.5C45.8 402.9 67.9 336.1 100 281c44.2-76 105.3-137 181-181 12.9-7.5 42.3-22.2 52-26 3-1.2 6.9-2.8 8.5-3.6C365 59.5 428.1 42.7 457 39.6c11.2-1.2 14.5-1.6 16.5-2.1 1.1-.2 7-.7 13-1.1 6.1-.3 11.2-.8 11.3-.9.6-.5 61.3.3 65.2.9z"/><path d="M401.7 166.6c-.1.1-3.1.4-6.7.7-21.8 1.8-47.8 13.6-64.9 29.3l-2.4 2.2 9.4 9.4c17.1 16.9 43.3 47.4 66.4 77.2 1.7 2.2 4.8 6.2 7.1 9 2.2 2.8 6.8 8.8 10.1 13.3l6.2 8.2-8.4-6.2c-12.9-9.5-26.3-16-41.8-20.1-11.5-3.1-17.3-3.9-31.2-4-9.9-.2-13.8.1-27 2-15.1 2.1-36.5 9.3-53 17.9l-12 6.2-5.5-7c-6.6-8.5-15.2-21.4-18.8-28.2-2.1-3.9-2.6-6.5-2.7-11.8 0-3.7-.2-6.7-.5-6.7-1 0-9.7 9.4-10.8 11.6-.6 1.1-.8 3.2-.5 4.5.5 1.9 6.9 10.7 12.8 17.6.6.6 2 2.4 3.1 4 1.2 1.5 5.3 6.8 9.2 11.7l7 8.9-6.3 6.4c-18.8 18.7-32.1 44.1-36.3 69.3-1.2 7.8-.6 29.9 1.2 37.5.9 3.8 1.9 8 2.1 9.2 1.2 5.1 6 17.3 9.6 24.3 6.2 12 13.9 21.5 25.4 31.6 15.5 13.5 31.8 22 52.8 27.4l10.8 2.7-6.3 1.2c-29.2 5.7-58.7 24.6-75.7 48.4-7.9 11.2-16.7 32.7-18.7 45.7-.3 1.9-.9 5.3-1.4 7.5-1 4.2-.6 26 .5 31 2.8 13.1 4.2 17.5 8.7 27.9 6.3 14.6 16.3 29.2 27.4 40.1l6.2 6.1-7.2 9c-3.9 5-8.2 10.6-9.6 12.4-1.4 1.9-4.9 6.3-7.9 9.9-7.9 9.7-8.5 11.4-6.5 15.6 1.6 3.5 9.1 11.5 10.7 11.5.5 0 .6-1.4.2-3.1-1.8-8.1 4-20.4 18.8-39.9l8-10.6 13.3 6.6c26 13.1 50.9 19.3 77.4 19.4 9.7 0 23.7-1.1 25.1-1.9.3-.2 2.1-.7 4-1 13.7-2.4 35.9-13.3 49.9-24.4 2.5-1.9 4-2.9 3.4-2.1-.6.8-5.8 7.5-11.5 14.9s-12.2 15.7-14.3 18.5c-7.6 9.9-30.8 38-39.1 47.2-.5.6-4.4 4.9-8.5 9.5s-11.4 12.4-16.3 17.2l-8.9 8.8 2.4 2.3c9.1 9.1 26.9 19.3 42.6 24.6 27.3 9.1 57.5 6.5 85.3-7.5 15.5-7.8 22.4-12.8 34.6-25.1 11.8-12 19.7-25.1 25.2-42.2 3.2-9.8 6.1-22.5 6.1-26.8 0-4.2.9-2.4 1.5 3.2 2.6 22.3 13.3 46.6 27.6 62.8 6.8 7.7 20.8 18.9 30.5 24.3 28.8 16.1 57.7 20.6 86.2 13.2 16.2-4.3 34.9-14 47.1-24.7l4.5-3.9-8.5-8.4c-21-20.9-54.2-60.2-83.3-98.7l-7.7-10.3 8.7 6.5c28.1 20.8 60.4 27.9 99.9 22 2.2-.3 4.2-.7 4.5-.9.3-.2 2.6-.6 5-1 4.1-.6 19-5.2 28-8.6 1.9-.8 8.9-4.1 15.6-7.5 8.3-4.2 12.3-5.7 13-5 3.4 3.9 15.4 20.9 19.5 27.7 5.7 9.6 7.3 14.7 6.5 20.6-.3 2.4-.2 4.3.2 4.3 1.5 0 9.1-8.2 10.6-11.5 1.2-2.5 1.4-3.9.6-5.7-.5-1.2-7.9-11.1-16.4-21.8l-15.4-19.5 5.2-5c16.3-15.7 29.5-38.5 35.1-60.4 2.6-10 3-14.6 2.9-28.6-.1-13.7-2.5-25.7-7.8-39.8-14-37.3-47.2-64.1-91.1-73.5l-4-.8 6.5-1.3c35.2-6.8 68.5-31.3 83.9-61.9 3.5-6.9 9.6-24.5 10.5-30.2.3-1.9.9-4.6 1.2-6 .4-1.4.8-8.1 1-15 .7-31.4-13-63.6-37.8-88.1l-5.6-5.6 10.9-13.9c12.1-15.3 11.9-15.1 17-21.4 2-2.5 3.8-5.5 4.2-6.8.8-3.5-2.1-8.2-9.2-14.7l-3.2-3 .6 5c1 7.6 0 10.5-10 27.4-.5.9-4.6 6.5-8.9 12.3l-7.9 10.7-9.1-4.9c-26.4-14-52.6-21-80.1-21.4-29.9-.5-57.3 8.8-80.5 27.3-4 3.2-3.4 2.3 5.5-9.4 10.2-13.4 35.5-45.3 40.9-51.6 14.4-16.7 13.9-16.1 26.1-29.9 2.2-2.5 8.3-8.7 13.5-13.9l9.4-9.4-3.4-3c-15.8-13.4-38.6-24.8-55.1-27.2-2.4-.4-4.7-.9-5.1-1.1-.5-.3-6.6-.6-13.6-.6-20.2-.1-35.9 3.8-55.6 13.8-10.3 5.3-12.3 6.6-22.6 15-22.4 18.4-33.6 38.7-40.5 73.4-.2.8-.4 2.8-.4 4.4-.1 4.4-.9 2.8-1.6-3.4-1.8-16.6-11-40.5-20.6-53.5-21.4-29.3-58.4-49-94-49.9-3.9-.1-7.1-.1-7.2 0zm12.2 7.4c3.4.5 7.1 1.2 8.3 1.4 8.3 1.6 24.9 9.4 34.7 16.3 26.1 18.7 41.5 50.7 40.7 84.8-.5 18.4-4.2 30.4-14.1 45.4-4.2 6.3-17.7 21.2-22.7 24.9-1.4 1.1-3.2-.8-14.4-15.5-12.7-16.6-38.2-49.3-39.3-50.3-.3-.3-2.4-2.8-4.6-5.5-2.1-2.8-9.6-12-16.5-20.5-7-8.5-14.1-17.7-15.9-20.3-6.6-9.7-11-22-10.5-29 .8-9.1 10.7-22.3 20.5-27.2 9.3-4.7 22.6-6.5 33.8-4.5zm242.4.4c4.1.8 9.7 2.6 12.4 3.9 9.6 4.9 19.7 18 20.7 26.8 1.1 10.2-5.8 24.7-19.9 41.9-24.9 30.5-49.6 61.5-65.4 82.3-14.2 18.7-14.3 18.8-16.4 17-19.7-16.7-32.1-36.5-35.5-56.6-.4-2.3-.6-10.3-.6-17.7.2-10.9.7-15.4 2.7-23.3 3.8-14.2 11.8-30.4 20.2-40.7 12.5-15.3 35.8-29.4 54.5-32.9 3-.6 6.4-1.3 7.5-1.5 4.5-.9 12.7-.5 19.8.8zM531.6 321.7c6.6 17.7 16 32.6 28.6 45.8 4.3 4.4 7.8 8.1 7.8 8.1 0 .1-7.2 9.3-16 20.5-11.3 14.5-16 21.2-16 23 0 2.9 5.5 10.7 9.4 13.2 3.3 2.2 3.7 2.1 2.7-.6-3-8.3 5.1-24.4 24.6-48.7l2.3-2.7 12.2 6.2c31.7 16 63.3 22.4 95.3 19.1 3.8-.4 7.2-.9 7.6-1.1.3-.2 2.1-.7 4-1 13.9-2.4 40.3-15.4 51.3-25.4l2.9-2.6-2.3 3.5c-1.9 2.7-25.8 33.7-31.7 41-7.6 9.4-21 25.7-21.8 26.6-.5.6-3.7 4.2-7 8-10 11.5-26 28.6-31.4 33.7l-5.1 4.8 3.8 3.2c2 1.8 4.4 3.8 5.2 4.6 8.6 8.3 35.7 20.4 50.5 22.6l5 .8-8.5 1.8c-18.9 4.1-37.8 13.7-52.3 26.6l-3.6 3.1 10.8 10.9c8.9 8.9 19.1 20.2 36.5 40.3 4 4.7 26.2 32.4 37.1 46.5 5.9 7.7 11.5 14.8 12.3 15.7 2 2.3.1 2.3-2.4 0-2.8-2.6-13.2-9.4-18.9-12.4-27.6-14.4-56.7-17.6-94-10.3-11.1 2.2-27.1 8-41.2 15l-14.3 7.1-3.3-3.9c-1.7-2.2-5.8-7.6-9-12.1-12.3-17-16.4-26.6-14.7-34.1 1-4.2.2-4.4-3.8-.8-4.7 4.2-8.2 9.4-8.2 12.2 0 1.8 5 8.9 16 23 8.8 11.2 16 20.5 16 20.5 0 .1-3.5 3.7-7.8 8.2-17.7 18.3-30.7 43.8-34.3 67.5l-1.3 8.3-1.8-9.9c-4.2-23.9-16.6-48-34-65.9-4.3-4.5-7.8-8.1-7.8-8.2 0 0 7.2-9.3 16-20.5 10.7-13.6 16-21.2 16-22.8 0-3.1-4.2-9.2-8.5-12.6-1.9-1.4-3.6-2.5-3.8-2.5-.3 0-.1 1.5.3 3.4 1.9 8.5-4.4 21.5-20.6 42.2l-6.3 8.1-14.3-7.1c-25.5-12.7-48.9-18.6-74.4-18.9-19.2-.2-32.2 2.1-47.7 8.2-6.9 2.8-21.7 10.3-24.1 12.2-.6.5-3.8 3-7.1 5.6-5.9 4.7-6 4.8-3.5 1.3 2.1-3 13.1-17.5 16.7-22 5.2-6.6 8.4-10.7 9.1-11.5 12.4-16.9 53.8-64.4 65.6-75.3l5.8-5.3-6.9-5.6c-3.7-3.1-9.1-7.1-12-9-9.1-5.8-25.5-12.6-36.3-14.9-1.9-.4-3.8-.9-4.2-1-.5-.1-1.8-.2-3-.4-1.3-.1 1.3-1 5.7-2 21-4.8 39.3-14.3 54.1-28l2.1-1.9-11.1-11.3c-19.4-19.7-47-52.2-71.1-83.8-2.8-3.6-5.2-6.7-5.5-7-1.4-1.4-10-12.9-10-13.4 0-.3 3 1.7 6.7 4.5 29.2 21.8 63.2 28.8 104.4 21.4 18.1-3.2 42.8-12.5 57.6-21.6l3.2-2 4.1 5.3c2.3 2.9 4.7 6 5.3 6.8.7.8 3.8 5.4 6.9 10.1 9.5 14.2 12.6 22.6 10.8 29.1-1.1 3.6.2 3.6 4.1-.2 5-4.7 7.9-9.2 7.9-11.9 0-1.8-4.9-8.8-16-23-8.8-11.2-16-20.5-16-20.5 0-.1 3.5-3.7 7.8-8.2 17.8-18.3 31.4-45.2 34.4-68l1.2-8.6 1.8 10.6c.9 5.8 3.4 14.9 5.4 20.3zM381 306.4c14.2 1.4 30.7 7.9 43.5 17.1 7.6 5.4 17.7 16.3 22.7 24.4l3.8 6-3.4 2.6c-14.3 10.9-43.6 23.7-63.1 27.6-17.2 3.4-37.7 2.8-52.2-1.5-21.7-6.5-39.1-19.1-50.4-36.4-2.7-4.1-4.9-7.8-4.9-8.2 0-1.3 13.1-9.6 22.5-14.3 30-15 53.7-20 81.5-17.3zm316.4.1c12.4 1.1 33.5 7.9 49.6 16 13.9 7 14.7 7.5 16 9 .7.8 1.8 1.5 2.4 1.5.6.1 2.4 1.1 4 2.4l2.9 2.4-2.8 4.9c-1.6 2.6-3.5 5.4-4.2 6.1-.7.7-1.3 1.7-1.3 2.1 0 .5-3.1 4-7 7.9-14 14.1-31.5 23-51.5 26.2-7.8 1.3-24.9 1.5-32.8.5-20.7-2.7-46.7-12.8-66.4-25.7l-8.3-5.4 3.8-6.3c13.4-22.8 40.7-39.5 68.2-41.8 3.6-.3 6.6-.7 6.8-.8.4-.3 11.6.2 20.6 1zm-427.6 39.3c.9.9 3.5 4.2 5.7 7.2 4.1 5.7 31.3 41 34.3 44.5.9 1.1 6 7.5 11.4 14.2 5.3 6.7 10.4 13 11.2 14 22.2 26.7 22.2 26.7 27.5 35.5 11 18.1 10.4 30.8-2.1 44.1-8.9 9.3-21.6 13.9-36.8 13.2-13.4-.6-26.4-4.4-40.1-11.8-7.1-3.7-19.3-13.2-24.5-19-5.7-6.4-14.4-19.1-14.4-21.1 0-.8-.4-1.7-.9-2-2.7-1.7-9.4-23.6-10.7-35.1-3.3-29.4 5.7-54.6 27.1-75.5 4.2-4.1 8.2-8 8.8-8.7 1.5-1.6 1.4-1.6 3.5.5zm520.8 7.3c11.5 11.2 21.1 25.7 24.7 37.4 10.5 33.4-.2 74.7-25.7 100-23.5 23.3-60.1 34.1-83.9 24.8-9.8-3.9-17.6-11.3-22.4-21.2-2.1-4.7-2.5-6.4-2-11.8.7-9.7 7.3-21.9 20.3-38.3 6-7.4 11.1-13.7 11.4-14 2.4-2 44.6-55.8 63.4-80.7 2.7-3.6 4.4-5 5.3-4.4.7.4 4.8 4.1 8.9 8.2zM335 531.3c16.5 2.7 31.3 17.1 32.8 31.9 1 9.9-5.9 23.9-20.2 41.6-4.5 5.5-13.5 16.6-20.1 24.8-6.6 8.2-12.3 15.1-12.6 15.4-.8.7-30.8 39.4-39.3 50.7l-6.9 9.2-2.9-2c-4.1-3-15.4-14.9-19.5-20.6-15.2-21.2-19.7-42.7-14.7-70.9 2.9-16.4 13.2-37.3 24.8-50.2 9.4-10.3 27.4-21.8 42.1-26.8 10.8-3.6 25.4-4.9 36.5-3.1zm403 .1c1.4.4 4 .9 5.8 1.2 4.5.7 19.5 6.9 26 10.6 30.4 17.4 49.9 52.6 49.4 89.3-.2 12.3-2 21.3-6.4 32.5-4.4 10.9-15.1 25-27.7 36.3-4.9 4.4-3.6 5.2-14.6-9.3-4.3-5.8-9.1-12.1-10.5-14-5.9-7.7-46.4-58.3-56.5-70.5-11.9-14.5-17.5-23.7-20.6-33.8-3.8-12.1-1.2-20.4 9.7-31.3 6.4-6.4 13.3-9.9 21.8-11.1 2.3-.3 4.3-.7 4.5-.9.6-.5 16.1.3 19.1 1zm-363.9 132c19.4 1.6 50.2 13.4 70.6 27.1l6.2 4.1-3.7 6.3c-13 22.1-40.4 39.2-66.6 41.7-27.2 2.6-50.4-2.1-79.1-16.3-9.4-4.6-24.5-14-24.5-15.3 0-1.7 10.1-15.9 14.8-20.6 14.6-15 36.6-25.4 56.8-27 4.9-.3 9-.7 9.1-.8.3-.2 8.5.2 16.4.8zm327.4.1c19.4 1.7 40.5 11.7 54.6 25.8 5.5 5.5 15.9 19.7 15.9 21.7 0 2.7-26.9 17.3-43 23.3-45.1 16.8-88.1 9.9-115.7-18.5-7.3-7.4-15.5-19.9-14.1-21.5 2-2.5 17.3-11.7 26.5-15.9 18.7-8.7 36.7-14 51-15 4.8-.4 8.9-.7 9-.8.3-.3 8.1.2 15.8.9zm-231 48c10.3 10.2 18.4 22.4 22.3 33.5 4.2 11.7 4.7 15.3 4.6 30.5-.1 17.9-2.6 28.8-9.8 44.1-12.1 25.5-29.6 41-59.1 52.2-6.1 2.4-18.2 4-27 3.7-14.2-.6-22.8-4-31.2-12.5-5.2-5.2-9.9-13.5-10.6-18.6-1.2-9.4 5.7-24.9 18.1-40.2 12.1-15 52.1-65 55.4-69.2 1.5-1.9 8-10.4 14.4-18.8l11.6-15.3 2.7 2.3c1.4 1.2 5.3 5 8.6 8.3zm132.1 6.2c10 13.3 25.2 32.8 29.7 38.3.7.8 3.7 4.6 6.8 8.5 3.1 3.8 12.2 15.1 20.3 25 8.1 9.9 15.2 18.7 15.9 19.5 8.1 10 14.3 25 14 34.2-.3 8.5-10.6 22.4-20.3 27.3-13.8 7-34.8 6.7-53.5-.7-29.4-11.7-48.9-32.2-58.8-61.8-10.5-31.4-6.1-61.3 12.6-86.2 5.9-7.9 18.1-19.8 20.2-19.8.7 0 6.6 7.1 13.1 15.7z"/></svg>